<?xml version="1.0" encoding="utf-8"?>
<!-- Generator: Adobe Illustrator 24.1.3, SVG Export Plug-In . SVG Version: 6.00 Build 0)  -->
<svg version="1.1" id="Layer_1" xmlns="http://www.w3.org/2000/svg" xmlns:xlink="http://www.w3.org/1999/xlink" x="0px" y="0px"
	 viewBox="0 0 612 432" style="enable-background:new 0 0 612 432;" xml:space="preserve"
	 width="512" height="512">
<style type="text/css">
	.st0{fill:none;stroke:#FFFFFF;stroke-miterlimit:10;}
	.st1{fill:none;stroke:#FF0000;stroke-width:0.5;stroke-miterlimit:10;}
</style>
<path class="st0" d="M120.5,31.3l6.3-4.6c6.3,4,11,10.1,13.2,17.4h-18.7c-1.3,0-2.3-1-2.3-2.3v-7.7C119.1,33,119.6,31.9,120.5,31.3z
	 M114.2,44.1c1.1-0.1,1.9-1.1,1.9-2.2v-8.2c0-1.7,0.8-3.4,2.2-4.4l5.7-4.1c-3.7-1.8-7.8-2.9-12.1-3.1v20
	C111.9,43.2,112.9,44.2,114.2,44.1z M94,26.7c-6.3,4-11,10.1-13.2,17.4h18.7c1.3,0,2.3-1,2.3-2.3v-7.7c0-1.1-0.5-2.2-1.5-2.9
	L94,26.7 M108.9,22c-4.3,0.2-8.4,1.3-12.1,3.1l5.7,4.1c1.4,1,2.2,2.7,2.2,4.4V42c0,1.2,1.1,2.2,2.3,2.1c1.1-0.1,1.9-1.1,1.9-2.2V22
	 M120.5,74.3l6.3,4.6c6.3-4,11-10.1,13.2-17.4h-18.7c-1.3,0-2.3,1-2.3,2.3v7.7C119.1,72.5,119.6,73.6,120.5,74.3z M111.9,63.7v19.9
	c4.3-0.2,8.4-1.3,12.1-3.1l-5.7-4.1c-1.4-1-2.2-2.7-2.2-4.4v-8.4c0-1.2-1.1-2.2-2.3-2.1C112.7,61.6,111.9,62.6,111.9,63.7z
	 M101.7,63.7c0-1.3-1-2.3-2.3-2.3H80.8c2.1,7.3,6.9,13.5,13.2,17.4l6.3-4.6c0.9-0.7,1.5-1.7,1.5-2.9v-7.6H101.7z M106.6,61.5
	c-1.1,0.1-1.9,1.1-1.9,2.2v8.2c0,1.7-0.8,3.4-2.2,4.4l-5.7,4.1c3.7,1.8,7.8,2.9,12.1,3.1v-20C108.9,62.3,107.9,61.3,106.6,61.5z"/>
<path class="st0" d="M151.7,50.7h-10.5c-0.1-1.2-0.2-2.4-0.5-3.6H80.1c-0.2,1.2-0.4,2.4-0.5,3.6H69.1c-1.2,0-2.1,1-2.1,2.1
	c0,1.2,1,2.1,2.1,2.1h10.5c0.1,1.2,0.2,2.4,0.5,3.6h60.6c0.2-1.2,0.4-2.4,0.5-3.6h10.5c1.2,0,2.1-1,2.1-2.1
	C153.8,51.6,152.8,50.7,151.7,50.7z"/>
<path class="st1" d="M151.7,58.5h-7.8c-2.7,16.1-16.7,28.3-33.5,28.3S79.6,74.6,76.9,58.5h-7.8c-3.2,0-5.7-2.6-5.7-5.7
	c0-3.2,2.6-5.7,5.7-5.7h7.8c2.7-16.1,16.7-28.3,33.5-28.3s30.8,12.2,33.5,28.3h7.8c3.2,0,5.7,2.6,5.7,5.7
	C157.4,55.9,154.8,58.5,151.7,58.5z"/> 
<!-- <path class="st0" d="M237.3,44.1c1.1-0.1,1.9-1.1,1.9-2.2v-8.2c0-1.7,0.8-3.4,2.2-4.4l5.7-4.1c-3.7-1.8-7.8-2.9-12.1-3.1v20
	C235,43.2,236,44.2,237.3,44.1z M217.1,26.7c-6.3,4-11,10.1-13.2,17.4h18.7c1.3,0,2.3-1,2.3-2.3v-7.7c0-1.1-0.5-2.2-1.5-2.9
	L217.1,26.7 M232,22c-4.3,0.2-8.4,1.3-12.1,3.1l5.7,4.1c1.4,1,2.2,2.7,2.2,4.4V42c0,1.2,1.1,2.2,2.3,2.1c1.1-0.1,1.9-1.1,1.9-2.2V22
	 M243.6,74.3l6.3,4.6c6.3-4,11-10.1,13.2-17.4h-18.7c-1.3,0-2.3,1-2.3,2.3v7.7C242.2,72.5,242.7,73.6,243.6,74.3z M235,63.7v19.9
	c4.3-0.2,8.4-1.3,12.1-3.1l-5.7-4.1c-1.4-1-2.2-2.7-2.2-4.4v-8.4c0-1.2-1.1-2.2-2.3-2.1C235.8,61.6,235,62.6,235,63.7z M224.8,63.7
	c0-1.3-1-2.3-2.3-2.3h-18.6c2.1,7.3,6.9,13.5,13.2,17.4l6.3-4.6c0.9-0.7,1.5-1.7,1.5-2.9v-7.6H224.8z M229.7,61.5
	c-1.1,0.1-1.9,1.1-1.9,2.2v8.2c0,1.7-0.8,3.4-2.2,4.4l-5.7,4.1c3.7,1.8,7.8,2.9,12.1,3.1v-20C232,62.3,231,61.3,229.7,61.5z"/>
<path class="st0" d="M264.3,50.7c-0.1-1.2-0.2-2.4-0.5-3.6h-60.6c-0.2,1.2-0.4,2.4-0.5,3.6h-10.5c-1.2,0-2.1,1-2.1,2.1
	c0,1.2,1,2.1,2.1,2.1h10.5c0.1,1.2,0.2,2.4,0.5,3.6h60.6c0.2-1.2,0.4-2.4,0.5-3.6V50.7z"/>
<g>

</g>
<path class="st0" d="M268,26.5c-0.7-1-2.1-1.1-2.9-0.4l-8.3,6.4c-0.8-0.9-1.6-1.8-2.6-2.6l0,0c-1.3-1.2-2.7-2.3-4.2-3.2l-6.3,4.6
	c-0.9,0.6-1.4,1.7-1.5,2.8v7.7c0,1.3,1,2.3,2.3,2.3h18.7c-0.5-1.8-1.2-3.5-2.1-5.1l0,0c-0.6-1.1-1.1-2.2-1.8-3.2l8.3-6.4
	C268.6,28.7,268.7,27.4,268,26.5z"/> -->
</svg>
